HIERARCHY
ROOT SpineBase
{
  OFFSET 0.000000 0.000000 0.000000
  CHANNELS 6 Xposition Yposition Zposition Zrotation Xrotation Yrotation
  JOINT SpineMid
  {
    OFFSET 0.000000 32.146355 0.000000
    CHANNELS 3 Zrotation Xrotation Yrotation
    JOINT SpineShoulder
    {
      OFFSET 0.322510 23.911772 -0.851805
      CHANNELS 3 Zrotation Xrotation Yrotation
      JOINT Neck
      {
        OFFSET 0.200837 7.921245 -0.635845
        CHANNELS 3 Zrotation Xrotation Yrotation
        JOINT Head
        {
          OFFSET 7.157778 9.379659 4.327229
          CHANNELS 3 Zrotation Xrotation Yrotation
          End Site
          {
            OFFSET 0 0 0
          }
        }
      }
      JOINT ShoulderLeft
      {
        OFFSET -3.081239 -3.672870 -13.807869
        CHANNELS 3 Zrotation Xrotation Yrotation
        JOINT ElbowLeft
        {
          OFFSET -4.098716 -24.938044 -5.975474
          CHANNELS 3 Zrotation Xrotation Yrotation
          JOINT WristLeft
          {
            OFFSET 1.177351 -19.058131 -1.291231
            CHANNELS 3 Zrotation Xrotation Yrotation
            JOINT HandLeft
            {
              OFFSET 0.329341 -8.618114 1.300140
              CHANNELS 3 Zrotation Xrotation Yrotation
              JOINT HandTipLeft
              {
                OFFSET 0.030625 -5.821220 -1.120112
                CHANNELS 3 Zrotation Xrotation Yrotation
                End Site
                {
                  OFFSET 0 0 0
                }
              }
              JOINT ThumbLeft
              {
                OFFSET 1.935183 -0.454638 -1.795308
                CHANNELS 3 Zrotation Xrotation Yrotation
                End Site
                {
                  OFFSET 0 0 0
                }
              }
            }
          }
        }
      }
      JOINT ShoulderRight
      {
        OFFSET 2.881276 -2.670469 16.944288
        CHANNELS 3 Zrotation Xrotation Yrotation
        JOINT ElbowRight
        {
          OFFSET -17.784780 -7.535834 -0.118434
          CHANNELS 3 Zrotation Xrotation Yrotation
          JOINT WristRight
          {
            OFFSET 4.688638 -16.482749 8.344531
            CHANNELS 3 Zrotation Xrotation Yrotation
            JOINT HandRight
            {
              OFFSET 1.445669 2.921603 8.398116
              CHANNELS 3 Zrotation Xrotation Yrotation
              JOINT HandTipRight
              {
                OFFSET 2.882082 -4.707682 5.705177
                CHANNELS 3 Zrotation Xrotation Yrotation
                End Site
                {
                  OFFSET 0 0 0
                }
              }
              JOINT ThumbRight
              {
                OFFSET -6.062355 -5.261774 -4.759297
                CHANNELS 3 Zrotation Xrotation Yrotation
                End Site
                {
                  OFFSET 0 0 0
                }
              }
            }
          }
        }
      }
    }
  }
  JOINT HipLeft
  {
    OFFSET -0.473395 1.893834 -10.352001
    CHANNELS 3 Zrotation Xrotation Yrotation
    JOINT KneeLeft
    {
      OFFSET -8.140472 -36.036651 4.124643
      CHANNELS 3 Zrotation Xrotation Yrotation
      JOINT AnkleLeft
      {
        OFFSET -10.152143 -32.038624 3.563868
        CHANNELS 3 Zrotation Xrotation Yrotation
        JOINT FootLeft
        {
          OFFSET 0.909243 -6.749116 0.798862
          CHANNELS 3 Zrotation Xrotation Yrotation
          End Site
          {
            OFFSET 0 0 0
          }
        }
      }
    }
  }
  JOINT HipRight
  {
    OFFSET 2.244995 0.257516 2.899010
    CHANNELS 3 Zrotation Xrotation Yrotation
    JOINT KneeRight
    {
      OFFSET -1.078400 -36.014787 14.042267
      CHANNELS 3 Zrotation Xrotation Yrotation
      JOINT AnkleRight
      {
        OFFSET -12.420836 -32.674354 -1.485257
        CHANNELS 3 Zrotation Xrotation Yrotation
        JOINT FootRight
        {
          OFFSET -3.054931 -4.932509 -8.245381
          CHANNELS 3 Zrotation Xrotation Yrotation
          End Site
          {
            OFFSET 0 0 0
          }
        }
      }
    }
  }
}
MOTION
Frames: 13
Frame Time: 0.033333
-68.781491 75.633476 312.787446 -1.626990 -0.000538 -78.139942 0.229500 0.474921 78.099182 0.154178 0.099568 -0.037739 3.303352 1.787553 -2.403224 0.000000 0.000000 0.000000 9.669541 -2.527333 -1.428213 -2.155531 -2.625426 1.133821 -16.332249 -14.738907 -2.034845 18.031047 -1.972243 -2.613474 0.000000 0.000000 0.000000 0.000000 0.000000 0.000000 0.960755 0.029343 0.076150 -0.000000 0.000000 0.000000 -0.000000 0.000000 0.000000 -0.000000 0.000000 0.000000 0.000000 0.000000 0.000000 0.000000 0.000000 0.000000 -0.946450 4.935567 78.114509 -5.197793 -0.608718 -0.668612 2.693145 -2.642976 0.579942 0.000000 0.000000 0.000000 0.703764 5.016510 79.442906 -5.077089 -1.135832 -0.939076 30.432680 -54.836124 -46.821134 0.000000 0.000000 0.000000
-68.779733 75.253770 312.889827 -1.656823 -0.102702 -78.207667 0.168377 0.512311 78.166352 0.123909 0.163425 -0.041046 3.601770 1.912877 -2.649041 0.000000 0.000000 0.000000 10.156658 -2.706215 -1.484085 -2.240839 -2.742174 1.199351 -15.134472 -12.773957 -1.373886 15.955972 -4.444724 -1.998137 0.000000 0.000000 0.000000 0.000000 0.000000 0.000000 0.996892 0.000869 0.080011 -0.000000 0.000000 0.000000 -0.000000 0.000000 0.000000 -0.000000 0.000000 0.000000 0.000000 0.000000 0.000000 0.000000 0.000000 0.000000 -0.823622 5.038654 78.229268 -5.542657 -0.300975 -0.774659 2.453345 -1.397644 0.749828 0.000000 0.000000 0.000000 -0.593955 5.785514 79.732665 -5.558111 -3.688378 -0.709257 28.933334 -54.420577 -50.026269 0.000000 0.000000 0.000000
-68.731590 74.819872 313.232945 -1.648706 -0.432250 -78.697758 0.032331 0.553015 78.656033 0.099367 0.261029 -0.041540 3.940390 2.188780 -2.967062 0.000000 0.000000 0.000000 10.650366 -2.787363 -1.569170 -2.282927 -2.747831 1.266047 -14.231930 -10.705509 -0.804766 15.139566 -7.349219 -1.741274 0.000000 0.000000 0.000000 0.000000 0.000000 0.000000 1.000401 0.095948 0.077057 -0.000000 0.000000 0.000000 -0.000000 0.000000 0.000000 -0.000000 0.000000 0.000000 0.000000 0.000000 0.000000 0.000000 0.000000 0.000000 -1.228705 5.102997 78.716550 -5.768085 -0.265916 -0.819057 2.448890 -0.447863 0.910655 0.000000 0.000000 0.000000 -1.772839 6.411550 80.425885 -6.159990 -4.847133 -0.808605 29.641711 -40.781336 -59.520817 0.000000 0.000000 0.000000
-68.665943 74.279058 313.599707 -1.627993 -0.718909 -79.426721 -0.019040 0.579991 79.385038 0.071108 0.349476 -0.040807 4.459464 2.279931 -3.205098 0.000000 0.000000 0.000000 11.058759 -2.815910 -1.651152 -2.174075 -2.771919 1.308281 -14.038255 -9.312222 -0.447045 14.753946 -9.093025 -1.584092 0.000000 0.000000 0.000000 0.000000 0.000000 0.000000 0.989678 0.245567 0.071125 -0.000000 0.000000 0.000000 -0.000000 0.000000 0.000000 -0.000000 0.000000 0.000000 0.000000 0.000000 0.000000 0.000000 0.000000 0.000000 -1.521275 5.037574 79.453301 -5.851542 -0.165735 -0.848227 2.675384 -0.256536 0.977978 0.000000 0.000000 0.000000 -4.513389 7.025362 81.358591 -6.178379 -9.024804 -0.341290 28.284827 -40.106144 -62.524868 0.000000 0.000000 0.000000
-68.552693 73.733827 314.024160 -1.559131 -1.044144 -80.220875 -0.067402 0.583327 80.180523 0.037686 0.415333 -0.038310 4.772392 2.569890 -3.463846 0.000000 0.000000 0.000000 11.405394 -2.789801 -1.738594 -1.955361 -2.861670 1.333180 -14.738894 -7.927929 -0.225706 14.273949 -10.105673 -1.244152 0.000000 0.000000 0.000000 0.000000 0.000000 0.000000 0.957223 0.464372 0.061219 -0.000000 0.000000 0.000000 -0.000000 0.000000 0.000000 -0.000000 0.000000 0.000000 0.000000 0.000000 0.000000 0.000000 0.000000 0.000000 -2.067001 4.840497 80.210289 -5.781646 -0.277064 -0.823484 3.826180 -1.297248 0.996768 0.000000 0.000000 0.000000 -7.487047 7.561287 82.397616 -6.258134 -13.343493 0.115149 28.453198 -33.319334 -67.320262 0.000000 0.000000 0.000000
-68.397185 73.272632 314.427534 -1.445886 -1.326408 -80.827658 -0.081621 0.551461 80.790345 0.004317 0.454833 -0.034658 5.014231 2.831264 -3.661422 0.000000 0.000000 0.000000 11.666125 -2.730407 -1.820790 -1.727984 -3.040937 1.348110 -15.844944 -7.073826 -0.117826 14.613851 -10.414781 -1.092639 0.000000 0.000000 0.000000 0.000000 0.000000 0.000000 0.909176 0.703917 0.049584 -0.000000 0.000000 0.000000 -0.000000 0.000000 0.000000 -0.000000 0.000000 0.000000 0.000000 0.000000 0.000000 0.000000 0.000000 0.000000 -2.865365 4.502091 80.711178 -5.541684 -0.681839 -0.733651 5.029730 -2.826062 0.987108 0.000000 0.000000 0.000000 -9.852386 7.765328 83.153270 -6.157486 -17.033795 0.663323 27.427116 -31.849213 -68.806239 0.000000 0.000000 0.000000
-68.259923 72.990825 314.702202 -1.357115 -1.459446 -81.308859 -0.014100 0.508785 81.274306 -0.040539 0.468432 -0.032921 4.804040 3.520958 -3.970746 0.000000 0.000000 0.000000 11.905768 -2.695105 -1.883884 -1.820453 -3.300101 1.380212 -16.916472 -6.444175 -0.106435 15.139520 -11.976978 -0.849791 0.000000 0.000000 0.000000 0.000000 0.000000 0.000000 0.895749 0.900892 0.042055 -0.000000 0.000000 0.000000 -0.000000 0.000000 0.000000 -0.000000 0.000000 0.000000 0.000000 0.000000 0.000000 0.000000 0.000000 0.000000 -3.387716 4.230752 81.109765 -5.487613 -0.917546 -0.703263 6.554376 -4.018646 1.126534 0.000000 0.000000 0.000000 -12.602986 7.861586 83.744651 -5.606751 -21.955258 1.626698 25.775604 -32.195498 -73.827764 0.000000 0.000000 0.000000
-68.112037 72.918244 314.875366 -1.247030 -1.511124 -81.290372 0.066424 0.438668 81.259599 -0.087358 0.454241 -0.031740 4.279582 4.466720 -4.329191 0.000000 0.000000 0.000000 12.074910 -2.695780 -1.920827 -1.704063 -3.444101 1.380522 -18.181313 -5.790422 -0.085652 15.141986 -12.740807 -0.520609 0.000000 0.000000 0.000000 0.000000 0.000000 0.000000 0.889607 1.056732 0.036448 -0.000000 0.000000 0.000000 -0.000000 0.000000 0.000000 -0.000000 0.000000 0.000000 0.000000 0.000000 0.000000 0.000000 0.000000 0.000000 -3.996201 4.054408 80.975404 -5.475164 -1.419375 -0.633337 7.682605 -6.415435 1.084661 0.000000 0.000000 0.000000 -15.201073 7.699340 83.671410 -4.439763 -27.242614 3.078324 24.811693 -22.584228 -68.932084 0.000000 0.000000 0.000000
-68.061315 72.845729 314.792149 -1.231252 -1.280813 -81.549654 0.277593 0.399385 81.519600 -0.138343 0.396732 -0.033822 3.854810 5.133837 -4.559490 0.000000 0.000000 0.000000 12.241716 -2.824273 -1.911529 -1.603499 -3.427175 1.362660 -18.974349 -5.722023 -0.099014 16.186899 -12.026183 -0.643260 0.000000 0.000000 0.000000 0.000000 0.000000 0.000000 0.932595 1.100643 0.038034 -0.000000 0.000000 0.000000 -0.000000 0.000000 0.000000 -0.000000 0.000000 0.000000 0.000000 0.000000 0.000000 0.000000 0.000000 0.000000 -3.317513 4.002567 81.325013 -5.694981 -0.908453 -0.743826 8.854286 -8.552471 1.120086 0.000000 0.000000 0.000000 -17.788563 7.130161 83.653589 -3.710325 -30.564856 3.701563 23.600862 -26.455239 -68.876328 0.000000 0.000000 0.000000
-67.960887 72.791028 314.760044 -1.171126 -1.186125 -81.643738 0.350974 0.355590 81.615966 -0.178504 0.364301 -0.034913 3.557915 5.574178 -4.715429 0.000000 0.000000 0.000000 12.341043 -2.962977 -1.893433 -1.260621 -3.443310 1.323254 -20.497041 -4.468118 0.005598 16.904319 -13.434157 -0.307170 0.000000 0.000000 0.000000 0.000000 0.000000 0.000000 0.945666 1.118083 0.038373 -0.000000 0.000000 0.000000 -0.000000 0.000000 0.000000 -0.000000 0.000000 0.000000 0.000000 0.000000 0.000000 0.000000 0.000000 0.000000 -2.860839 3.886018 81.486545 -5.851178 -0.506674 -0.824265 10.050156 -9.929731 1.247336 0.000000 0.000000 0.000000 -20.837802 6.932975 83.641858 -2.643366 -35.491426 4.945986 23.001597 -19.818588 -65.001979 0.000000 0.000000 0.000000
-67.855400 72.764673 314.679144 -1.111155 -1.085333 -81.478975 0.388943 0.317301 81.453435 -0.201564 0.334746 -0.035503 3.681683 5.631860 -4.851218 0.000000 0.000000 0.000000 12.360992 -3.076622 -1.870202 -0.798509 -3.369135 1.273760 -21.157603 -3.183727 0.223304 17.512174 -14.442738 -0.156319 0.000000 0.000000 0.000000 0.000000 0.000000 0.000000 0.940203 1.088913 0.038966 -0.000000 0.000000 0.000000 -0.000000 0.000000 0.000000 -0.000000 0.000000 0.000000 0.000000 0.000000 0.000000 0.000000 0.000000 0.000000 -2.523165 3.802061 81.363930 -5.982800 -0.259372 -0.877002 10.535256 -10.618298 1.290325 0.000000 0.000000 0.000000 -22.432910 6.783918 83.357919 -1.742022 -38.425042 5.930877 21.487794 -12.084807 -56.623206 0.000000 0.000000 0.000000
-67.772486 72.738092 314.542090 -1.071749 -0.972011 -81.441093 0.390043 0.291791 81.416772 -0.218996 0.322149 -0.037312 3.985500 5.317411 -4.840461 0.000000 0.000000 0.000000 12.320098 -3.202681 -1.828658 -0.504079 -3.390645 1.235902 -22.249425 -2.372332 0.286701 19.011480 -16.303043 0.016706 0.000000 0.000000 0.000000 0.000000 0.000000 0.000000 0.943126 0.992873 0.042399 -0.000000 0.000000 0.000000 -0.000000 0.000000 0.000000 -0.000000 0.000000 0.000000 0.000000 0.000000 0.000000 0.000000 0.000000 0.000000 -2.059651 3.769242 81.396606 -6.210965 0.132585 -0.964779 10.489558 -10.407865 1.299561 0.000000 0.000000 0.000000 -23.663338 6.794038 83.314139 -1.176823 -40.603812 6.600982 15.953741 -0.942938 -37.855640 0.000000 0.000000 0.000000
-67.639018 72.680147 314.643915 -0.984275 -1.118004 -81.644441 0.278726 0.282703 81.623608 -0.212772 0.342992 -0.034192 4.543987 4.965532 -4.903792 0.000000 0.000000 0.000000 12.259401 -3.280244 -1.814062 -0.360123 -3.289682 1.201770 -22.564352 -2.181727 0.316085 20.276585 -17.174857 -0.033518 0.000000 0.000000 0.000000 0.000000 0.000000 0.000000 0.875914 1.010303 0.037006 -0.000000 0.000000 0.000000 -0.000000 0.000000 0.000000 -0.000000 0.000000 0.000000 0.000000 0.000000 0.000000 0.000000 0.000000 0.000000 -2.133742 3.695451 81.618487 -6.403735 0.316519 -1.025223 9.966196 -9.484201 1.289254 0.000000 0.000000 0.000000 -22.994143 6.537866 83.416525 -1.265321 -39.362274 6.370639 12.547650 6.327010 -29.237042 0.000000 0.000000 0.000000
